<svg width="444" height="74" viewBox="0 0 444 74" fill="none" xmlns="http://www.w3.org/2000/svg">
<path d="M412.558 73.8673L410.35 69.4509V34.2021L425.835 73.8673H443.527L441.319 69.4509V4.51453L443.527 0.098175H424.363L426.571 4.51453V39.7907L411.086 0.125463H393.394L395.602 4.54178V69.4782L393.394 73.8945H412.558V73.8673Z" fill="black"/>
<path d="M345.387 14.8738H361.607V59.1189H345.387V14.8738ZM366.051 73.8945L376.383 63.5625V10.4575L366.051 0.125458H340.97L330.638 10.4575V63.5625L340.97 73.8945H366.051Z" fill="black"/>
<path d="M301.114 73.8673L298.906 69.4509V14.8465H310.71L315.127 17.0547V0.0709229H267.964V17.0547L272.381 14.8465H284.158V69.4509L281.95 73.8673H301.114Z" fill="black"/>
<path d="M228.027 73.8673L225.819 69.4509V44.5069H240.567L244.983 46.715V27.5231L240.567 29.7585H225.819V14.8465H247.955L252.371 17.0547V0.0709229H208.862L211.07 4.48724V69.4237L208.862 73.84L228.027 73.8673Z" fill="black"/>
<path d="M156.275 47.0694L162.654 22.5615L169.033 47.0694H156.275ZM192.151 73.8673L190.27 69.8053L172.823 4.37822L174.431 0.098175H150.823L152.431 4.37822L134.984 69.8053L133.103 73.8673H151.532L150.686 68.415L152.567 61.218H172.659L174.54 68.415L173.695 73.8673H192.151Z" fill="black"/>
<path d="M86.7314 14.8738H101.48V37.528H86.7314V14.8738ZM69.7476 0.125463L71.9558 4.54178V69.4782L69.7476 73.8945H88.9123L86.7041 69.4782V52.2763H91.8838L98.0721 69.1238L97.7722 73.8945H117.7L113.802 68.2514L107.15 51.0496L116.255 41.9443V10.4302L105.923 0.098175L69.7476 0.125463Z" fill="black"/>
<path d="M54.3177 73.8673L49.8196 68.1969L32.5632 33.466L48.5111 4.65085L52.0823 0.125463H32.8903L33.1084 3.64215L19.9685 27.9865H17.4059V4.51453L19.6141 0.098175H0.422119L2.63029 4.51453V69.4509L0.422119 73.8673H19.6141L17.4059 69.4509V42.7076H19.8322L33.1629 70.2415L32.9449 73.8673H54.3177Z" fill="black"/>
</svg>
