<svg xmlns="http://www.w3.org/2000/svg" viewBox="0 0 768.1 225.59"><defs><style>.cls-1{fill:#8110f6;}</style></defs><g id="Layer_2" data-name="Layer 2"><g id="Layer_1-2" data-name="Layer 1"><polygon points="62.99 195.51 0 203.49 8.08 98.99 32.68 95.87 26.08 179.97 64.64 175.07 62.99 195.51"/><polygon points="73.29 194.21 95.92 191.34 104.19 86.81 81 89.75 73.29 194.21"/><path d="M197.06,94.5l1.46-19.64L138.16,82.5s-22.35,2.35-24.53,24.56l-5.32,68.53s1.29,15.48,18.29,12.67S173.66,182,173.66,182a29.06,29.06,0,0,0,18-24.72l3.75-41.92-15.16,1.87-22.72,12.29-1.15,14.23,18.93-2.24-.95,12.16s.47,4.06-3,4.22l-30.7,5.65s-7.82,1.56-7.82-5l3.13-45s.13-10.46,13-12.34Z"/><polygon points="208.55 73.58 201.13 178 221.33 175.44 225.1 127.95 257.71 123.96 253.63 171.35 277.08 168.38 285.42 63.84 261.61 66.86 259.37 105.1 226.66 108.94 230.31 70.83 208.55 73.58"/><polygon points="353.84 55.17 373.57 71.26 344.25 75.84 337.53 160.72 314.02 163.7 320.86 78.81 292.78 82.37 294.32 62.71 353.84 55.17"/><path d="M560.82,26.26l-7.11,99.09c-1.18,22.39-20.47,22.18-20.47,22.18l-56.53,7.17c-11-1.07-9.83-14-9.83-14l7.73-90.25,26.31-13.07L495,117.87c-.5,11.55,4.27,11.4,4.27,11.4L521,127.13c8.18-.36,8.54-12.11,8.54-12.11l6.76-85.64Z"/><polygon points="664.2 13.17 694.63 73.71 690.63 127.59 716.74 124.28 720.83 70.33 768.1 0 733.98 4.32 710.64 46.47 695.06 9.26 664.2 13.17"/><polygon class="cls-1" points="526.9 16.63 489.6 35.15 475.31 42.24 423.97 67.73 412.88 97.4 452.57 92.15 346.64 222.8 384.46 117.27 364.76 119.88 383.34 70.2 377.01 65.04 363.42 53.96 352.6 45.13 526.9 16.63"/><path d="M515.74,186.19a15.3,15.3,0,0,1,0,3.43l-.1.94a1.34,1.34,0,0,1-1.14,1.08l-4.92.68c-.6.09-1-.25-.95-.79l.1-.93c.22-1.68.4-2-.72-3.53-.56-.78-1.74-1-3.45-.77-1.94.27-3.23.85-3.92,1.87-1.21,1.68-1.54,2.06-1.75,3.8l-2.74,22.39c-.2,1.81-.33,2,.83,3.77.57.84,1.68,1.15,3.54.89s3.37-.93,4-1.94a6.82,6.82,0,0,0,1.48-4.09l.79-6.37c.11-.81-.57-1.37-1.47-1.25l-2.46.34c-.89.13-1.58-.43-1.46-1.24l.32-2.62a2.2,2.2,0,0,1,1.81-1.7l9.47-1.32c.89-.12,1.58.44,1.46,1.25L513,212c-.42,3.55-.74,4.52-2.53,6.94a15.82,15.82,0,0,1-10.8,6.51c-5.14.72-9.82-1.73-10.51-6.18a16.13,16.13,0,0,1,0-3.95l2.74-22.39a14.71,14.71,0,0,1,.89-3.41A23.7,23.7,0,0,1,496,184.4q2.7-3.54,9.41-4.48C510.59,179.2,515.11,181.66,515.74,186.19Z"/><path d="M531.61,218.83l15.57-43.22a2.42,2.42,0,0,1,1.71-1.36l3.58-.49a1.24,1.24,0,0,1,1.42.92l5.3,40.31a2,2,0,0,1-1.85,2l-4.17.58a1.26,1.26,0,0,1-1.5-1l-.59-7a1.27,1.27,0,0,0-1.51-1l-6.48.9a2.33,2.33,0,0,0-1.78,1.43l-2.39,7.39a2.35,2.35,0,0,1-1.78,1.43l-4.1.57C531.92,220.57,531.29,219.86,531.61,218.83Zm14.11-15.47,2.75-.39a2.08,2.08,0,0,0,1.86-2l-.6-6.5c-.13-1.5-2.74-1.14-3.21.44l-2.23,6.9C544,202.8,544.67,203.5,545.72,203.36Z"/><path d="M604,209.08l2-16.62c.24-1.62-2.43-1.64-3.12,0l-4.69,9.95a2.65,2.65,0,0,1-1.66,1.22l-1.26.17a1.4,1.4,0,0,1-1.48-.78l-2.31-9c-.36-1.47-3-.7-3.22.91l-2,16.62a2.18,2.18,0,0,1-1.81,1.7l-3.81.53c-1,.14-1.58-.43-1.46-1.24l5.13-41.77a2.14,2.14,0,0,1,1.82-1.7l3.8-.53a1.42,1.42,0,0,1,1.48.78l5.21,17.79c.34,1.34,2.35,1.06,3-.42l9.63-19.86a2.58,2.58,0,0,1,1.65-1.22l3.81-.53c.89-.12,1.58.44,1.46,1.25l-5.13,41.76a2.21,2.21,0,0,1-1.82,1.71l-3.8.52C604.46,210.46,603.85,209.89,604,209.08Z"/><path d="M652.92,198.83l-.42,3.49a2.2,2.2,0,0,1-1.82,1.7l-18,2.5c-.9.13-1.59-.43-1.47-1.24l5.13-41.77a2.21,2.21,0,0,1,1.82-1.7l18-2.5c.89-.13,1.58.44,1.46,1.24l-.35,2.95a2.18,2.18,0,0,1-1.81,1.7l-11,1.53a2.2,2.2,0,0,0-1.82,1.7l-1.31,10.26c-.11.81.57,1.38,1.47,1.25l9.24-1.29c.9-.12,1.59.44,1.47,1.25l-.41,3.09a2.2,2.2,0,0,1-1.81,1.7L642.09,186a2.18,2.18,0,0,0-1.81,1.7L639,197.87c-.12.8.57,1.37,1.46,1.24l11-1.52C652.35,197.46,653,198,652.92,198.83Z"/><path d="M681.47,192.61c.56.78,1.74,1,3.53.76,3.2-.44,5.43-2.47,5.74-4.62.17-1.47.34-3,.51-4.48s.6-2.26-.53-3.29a4.44,4.44,0,0,0-2.05-1.1c-.95-.26-2.61-.69-4.88-1.16-4.54-.95-7.95-3.64-7.19-9.67l.25-2c.62-5.35,5.8-11.81,13.18-12.84,6.56-.91,11.52,3,10.75,9.51l-.16,1a1.5,1.5,0,0,1-1.21,1.16l-4.85.67a.83.83,0,0,1-1-.84l.17-1a3.67,3.67,0,0,0-.93-3.37c-.56-.78-1.73-1-3.37-.78a6.43,6.43,0,0,0-5.47,5.51l-.25,2c-.18,1.47-.49,2,.5,3a3.84,3.84,0,0,0,1.81,1c.79.22,2.43.58,4.7,1a12.3,12.3,0,0,1,5.87,2.88c1.66,1.48,2.21,3.84,1.87,6.85L698,186.5a16.64,16.64,0,0,1-.9,3.94,20,20,0,0,1-3.62,5.12c-2,2.25-5,3.59-9.07,4.16s-7.24-.17-8.85-2.45a10.34,10.34,0,0,1-2-7.37l.12-.8a1.17,1.17,0,0,1,1-.93l5.37-.75c.52-.07.86.21.78.68l-.12.81C680.45,190.71,680.26,191,681.47,192.61Z"/><polygon points="567.46 77.85 562.88 144.52 589.4 141.4 595.82 58.02 567.46 77.85"/><path d="M569.37,50.62l1.87-26.52,73.63-10a15.51,15.51,0,0,1,11,3.65c4.43,3.85,9,13.53,9.52,27.79,1.12,32.16-29.7,42.35-29.7,42.35l18.77,44.36L624,135.84,608.54,98l-.25-31.6,20-3.06c11-1.71,8.74-13.23,8.74-13.23-.83-7.62-7.77-6.74-7.77-6.74Z"/></g></g></svg>