<svg width="32" height="32" viewBox="0 0 32 32" fill="none" xmlns="http://www.w3.org/2000/svg">
    <path d="M13.168 6.65174C12.9355 6.00534 12.7008 5.3536 12.6965 5.34507C12.5845 5.0944 12.3253 4.93654 12.0523 4.96427C11.8795 4.97814 7.79095 5.33014 5.17121 7.4368C3.80161 8.70187 1.06668 16.0981 1.06668 22.4928C1.06668 22.6059 1.09548 22.7157 1.15201 22.8139C3.04108 26.1312 8.19095 26.9995 9.36428 27.0368C9.37175 27.0379 9.37815 27.0379 9.38455 27.0379C9.59148 27.0379 9.78561 26.9387 9.90935 26.7712L11.1787 25.0517C9.08161 24.7328 8.70295 24.3168 8.61441 24.2517C8.14081 23.9029 7.79095 23.4144 8.21548 22.7979C8.54188 22.3189 9.22668 22.1611 9.75148 22.4309C10.2891 22.6816 11.728 23.488 16 23.4667C20.2421 23.4539 22.1045 22.5653 22.1312 22.5461C22.8437 22.2251 23.3995 22.3573 23.7461 22.8331C24.1589 23.4805 23.8645 23.9189 23.3931 24.2667C23.3045 24.3317 23.0901 24.5141 20.8373 25.0475L22.0907 26.7701C22.2133 26.9387 22.4085 27.0368 22.6155 27.0368C22.6229 27.0368 22.6293 27.0368 22.6357 27.0357C23.8101 26.9984 28.96 26.1301 30.848 22.8128C30.9045 22.7147 30.9333 22.6048 30.9333 22.4917C30.9333 16.0981 28.1984 8.70187 26.7947 7.40907C24.2091 5.3312 20.1205 4.9792 19.9477 4.96427C19.6747 4.9408 19.4155 5.09547 19.3035 5.34507C19.2992 5.3536 19.0709 6.016 18.8501 6.65494C18.8501 6.65494 17.1104 6.4 16 6.4C14.8896 6.4 13.168 6.65174 13.168 6.65174ZM11.7333 20.2667C10.5547 20.2667 9.60001 18.8448 9.60001 17.0891C9.60001 15.3333 10.5547 13.9115 11.7333 13.9115C12.9163 13.7355 13.8411 15.3333 13.8667 17.0891C13.8667 18.8448 12.912 20.2667 11.7333 20.2667ZM20.2667 20.2667C19.088 20.2667 18.1333 18.8352 18.1333 17.0699C18.1333 15.3045 19.088 13.8731 20.2667 13.8731C21.4453 13.8731 22.4 15.3045 22.4 17.0699C22.4 18.8352 21.4453 20.2667 20.2667 20.2667Z" fill="#4E5AE9"/>
</svg>