<svg width="32" height="32" viewBox="0 0 32 32" fill="none" xmlns="http://www.w3.org/2000/svg">
    <path d="M28 7.66667V24.3333C28 26.3533 26.3533 28 24.3333 28H20.6667V18.6667H23.08C23.42 18.6667 23.7067 18.4133 23.7467 18.08L23.9933 16.08C24.02 15.8933 23.96 15.7 23.8333 15.56C23.7067 15.4133 23.5267 15.3333 23.3333 15.3333H20.6667V13C20.6667 12.2667 21.2667 11.6667 22 11.6667H23.3333C23.7 11.6667 24 11.3667 24 11V8.74667C24 8.40667 23.7333 8.12 23.3933 8.08667C23.3533 8.08 22.4133 8 21.22 8C18.2867 8 16.6667 9.74667 16.6667 12.9133V15.3333H14C13.6333 15.3333 13.3333 15.6333 13.3333 16V18C13.3333 18.3667 13.6333 18.6667 14 18.6667H16.6667V28H7.66667C5.64667 28 4 26.3533 4 24.3333V7.66667C4 5.64667 5.64667 4 7.66667 4H24.3333C26.3533 4 28 5.64667 28 7.66667Z" fill="#006CEA"/>
</svg>