<svg width="32" height="32" viewBox="0 0 32 32" fill="none" xmlns="http://www.w3.org/2000/svg">
    <path d="M10.6646 3.20001C6.54831 3.20001 3.2 6.55143 3.2 10.6688V21.3354C3.2 25.4517 6.55141 28.8 10.6687 28.8H21.3354C25.4517 28.8 28.8 25.4486 28.8 21.3313V10.6646C28.8 6.54833 25.4486 3.20001 21.3312 3.20001H10.6646ZM23.4667 7.46668C24.0555 7.46668 24.5333 7.94455 24.5333 8.53335C24.5333 9.12215 24.0555 9.60001 23.4667 9.60001C22.8779 9.60001 22.4 9.12215 22.4 8.53335C22.4 7.94455 22.8779 7.46668 23.4667 7.46668ZM16 9.60001C19.5296 9.60001 22.4 12.4704 22.4 16C22.4 19.5296 19.5296 22.4 16 22.4C12.4704 22.4 9.6 19.5296 9.6 16C9.6 12.4704 12.4704 9.60001 16 9.60001ZM16 11.7333C14.8684 11.7333 13.7832 12.1829 12.983 12.983C12.1829 13.7832 11.7333 14.8684 11.7333 16C11.7333 17.1316 12.1829 18.2168 12.983 19.017C13.7832 19.8172 14.8684 20.2667 16 20.2667C17.1316 20.2667 18.2168 19.8172 19.017 19.017C19.8171 18.2168 20.2667 17.1316 20.2667 16C20.2667 14.8684 19.8171 13.7832 19.017 12.983C18.2168 12.1829 17.1316 11.7333 16 11.7333Z" fill="url(#paint0_linear_14546_45999)"/>
    <defs>
        <linearGradient id="paint0_linear_14546_45999" x1="3" y1="3" x2="29" y2="29" gradientUnits="userSpaceOnUse">
            <stop offset="0.1" stop-color="#FBD749"/>
            <stop offset="0.34" stop-color="#F76D69"/>
            <stop offset="0.5" stop-color="#F55374"/>
            <stop offset="0.66" stop-color="#BC3089"/>
            <stop offset="0.9" stop-color="#5D27C0"/>
        </linearGradient>
    </defs>
</svg>
