<svg width="32" height="32" viewBox="0 0 32 32" fill="none" xmlns="http://www.w3.org/2000/svg">
    <path d="M16 2C8.26818 2 2 8.26818 2 16C2 23.7318 8.26818 30 16 30C23.7318 30 30 23.7318 30 16C30 8.26818 23.7318 2 16 2ZM16.9732 7.5918C17.0287 7.58171 17.0865 7.58248 17.1447 7.59553L20.5763 8.28036C20.7953 7.89791 21.1924 7.64071 21.6341 7.59553C22.4034 7.51216 23.0919 8.06845 23.1752 8.83718C23.2586 9.60654 22.7023 10.2963 21.9336 10.3796C21.1642 10.463 20.4745 9.90733 20.3912 9.13796L17.3958 8.50781L16.4872 12.8754C18.4116 12.9174 20.2836 13.5124 21.8777 14.598C22.2391 14.2537 22.7167 14.0472 23.2175 14.03C24.3483 13.9918 25.2946 14.8724 25.3366 16C25.3506 16.7865 24.9088 17.51 24.2056 17.8619C24.2196 18.0668 24.2196 18.2728 24.2056 18.4783C24.2056 21.6175 20.5515 24.1646 16.0447 24.1646C11.538 24.1646 7.88388 21.6137 7.88388 18.4783C7.86988 18.2728 7.86988 18.0674 7.88388 17.8619C7.67833 17.7715 7.49425 17.6423 7.33452 17.4927C6.50979 16.7202 6.47124 15.4258 7.24379 14.6042C8.01633 13.7795 9.31073 13.7409 10.1323 14.5135C11.7467 13.4209 13.6438 12.822 15.5923 12.7908L16.6264 7.93359V7.92614C16.6656 7.74859 16.8068 7.62204 16.9732 7.5918ZM12.7374 16C11.9636 16 11.3366 16.6269 11.3366 17.4007C11.3366 18.1746 11.9642 18.8015 12.7374 18.8015C13.5112 18.8015 14.1381 18.1739 14.1381 17.4007C14.1381 16.6269 13.5106 16 12.7374 16ZM19.2216 16C18.4484 16 17.8215 16.6269 17.8208 17.4007C17.8208 18.1746 18.4484 18.8015 19.2216 18.8015C19.9954 18.8015 20.6223 18.1739 20.6223 17.4007C20.6223 16.6269 19.9948 16 19.2216 16ZM12.843 20.6323C12.7582 20.6323 12.6728 20.6608 12.6032 20.718C12.4428 20.8504 12.4186 21.0909 12.551 21.2512C13.5462 21.9996 14.7652 22.3823 16.0112 22.3301C17.2572 22.3823 18.4749 21.9996 19.4702 21.2512V21.3072C19.6235 21.157 19.6272 20.9074 19.4776 20.7541C19.3281 20.6007 19.0767 20.5971 18.9233 20.7466C18.0706 21.3556 17.0399 21.6546 15.9963 21.5993C14.9526 21.6476 13.9261 21.334 13.0842 20.718C13.0129 20.6608 12.9279 20.6323 12.843 20.6323Z" fill="#F55124"/>
</svg>