<svg width="32" height="32" viewBox="0 0 32 32" fill="none" xmlns="http://www.w3.org/2000/svg">
    <path d="M16 4.26666C11.5349 4.26666 5.73958 5.38541 5.73958 5.38541L5.725 5.40208C3.69137 5.72732 2.13333 7.4748 2.13333 9.6V16V16.0021V22.4V22.4021C2.13532 23.4171 2.49906 24.3981 3.15925 25.169C3.81944 25.9399 4.73283 26.4502 5.73541 26.6083L5.73958 26.6146C5.73958 26.6146 11.5349 27.7354 16 27.7354C20.4651 27.7354 26.2604 26.6146 26.2604 26.6146L26.2625 26.6125C27.2662 26.4547 28.1806 25.944 28.8413 25.1722C29.502 24.4003 29.8656 23.4181 29.8667 22.4021V22.4V16.0021V16V9.6C29.8652 8.58467 29.5017 7.60315 28.8414 6.83179C28.1812 6.06044 27.2675 5.54981 26.2646 5.39166L26.2604 5.38541C26.2604 5.38541 20.4651 4.26666 16 4.26666ZM12.8 11.0917L21.3333 16L12.8 20.9083V11.0917Z" fill="#F32E32"/>
</svg>